{"title":"R... Rajkumar Hindi Movie Mashup By Dj Angel - HD 1080p {DAKU RG","uid":9288329,"size":76277499,"categoryP":"video","categoryS":"music_videos","magnet":"?xt=urn:btih:3c91332f6328a36c6f6a36f651b2b0c4c03a5990&amp;dn=R...+Rajkumar+Hindi+Movie+Mashup+By+Dj+Angel+-+HD+1080p+%7BDAKU+RG&amp;tr=udp%3A%2F%2Ftracker.openbittorrent.com%3A80&amp;tr=udp%3A%2F%2Fopen.demonii.com%3A1337&amp;tr=udp%3A%2F%2Ftracker.coppersurfer.tk%3A6969&amp;tr=udp%3A%2F%2Fexodus.desync.com%3A6969","seeders":1,"leechers":0,"uploader":"Palash995","files":1,"time":1386050825,"description":"[center]Without Any reason..Don't Dislike the torrent.....please check and give your feedback\n\n\nDance to the tunes of R...Rajkumar songs in a special mashup.\n\nEros International &amp; Next Gen Films presents 'R...Rajkumar' a film directed by Prabhu Dheva featuring Shahid Kapoor &amp; Sonakshi Sinha in the lead roles. The film is produced by Sunil Lulla &amp; Viki Rajani.\n\nR...Rajkumar releases in theatres on 6th December, 2013.\n\nScreenshots:-\n\n\n\n\n\nMedia Info:-\n\nGeneral\nComplete name : R... Rajkumar Hindi Movie Mashup By Dj Angel - HD 1080p {DAKU RG} {GreatPalash}.mp4\nFormat : MPEG-4\nFormat profile : Base Media\nCodec ID : isom\nFile size : 72.7 MiB\nDuration : 2mn 20s\nOverall bit rate mode : Variable\nOverall bit rate : 4 336 Kbps\nWriting application : Lavf53.31.100\n\nVideo\nID : 1\nFormat : AVC\nFormat/Info : Advanced Video Codec\nFormat profile : &lt;a class=&quot;__cf_email__&quot; href=&quot;/cdn-cgi/l/email-protection&quot; data-cfemail=&quot;8cc4e5ebe4ccc0b8a2bd&quot;&gt;[email&amp;#160;protected]&lt;/a&gt;&lt;script cf-hash='f9e31' type=&quot;text/javascript&quot;&gt;\n/* &lt;![CDATA[ */!function(){try{var t=&quot;currentScript&quot;in document?document.currentScript:function(){for(var t=document.getElementsByTagName(&quot;script&quot;),e=t.length;e--;)if(t[e].getAttribute(&quot;cf-hash&quot;))return t[e]}();if(t&amp;&amp;t.previousSibling){var e,r,n,i,c=t.previousSibling,a=c.getAttribute(&quot;data-cfemail&quot;);if(a){for(e=&quot;&quot;,r=parseInt(a.substr(0,2),16),n=2;a.length-n;n+=2)i=parseInt(a.substr(n,2),16)^r,e+=String.fromCharCode(i);e=document.createTextNode(e),c.parentNode.replaceChild(e,c)}}}catch(u){}}();/* ]]&gt; */&lt;/script&gt;\nFormat settings, CABAC : Yes\nFormat settings, ReFrames : 3 frames\nCodec ID : avc1\nCodec ID/Info : Advanced Video Coding\nDuration : 2mn 20s\nBit rate mode : Variable\nBit rate : 4 076 Kbps\nMaximum bit rate : 19.2 Mbps\nWidth : 1 920 pixels\nHeight : 1 080 pixels\nDisplay aspect ratio : 16:9\nFrame rate mode : Constant\nFrame rate : 25.000 fps\nStandard : PAL\nColor space : YUV\nChroma subsampling : 4:2:0\nBit depth : 8 bits\nScan type : Progressive\nBits/(Pixel*Frame) : 0.079\nStream size : 68.4 MiB (94%)\nColor primaries : BT.709\nTransfer characteristics : BT.709\nMatrix coefficients : BT.709\n\nAudio\nID : 2\nFormat : AAC\nFormat/Info : Advanced Audio Codec\nFormat profile : LC\nCodec ID : 40\nDuration : 2mn 20s\nBit rate mode : Constant\nBit rate : 254 Kbps\nChannel(s) : 2 channels\nChannel positions : Front: L R\nSampling rate : 44.1 KHz\nCompression mode : Lossy\nStream size : 4.25 MiB (6%)\n\n[IMG]http://imageshack.us/a/img89/4822/zka.gif[/IMG]\n\n[IMG]http://imageshack.us/a/img200/185/tj8.gif[/IMG]\n\n[IMG]http://imageshack.us/a/img593/9603/ua8.gif[/IMG]\n\n[IMG]http://imageshack.us/a/img707/5608/ysmp.png[/IMG]\n\n[IMG]http://imageshack.us/a/img42/9563/3nt.gif[/IMG][/center]","torrent":{"xt":"urn:btih:3c91332f6328a36c6f6a36f651b2b0c4c03a5990","amp;dn":"R...+Rajkumar+Hindi+Movie+Mashup+By+Dj+Angel+-+HD+1080p+%7BDAKU+RG","amp;tr":["udp%3A%2F%2Ftracker.openbittorrent.com%3A80","udp%3A%2F%2Fopen.demonii.com%3A1337","udp%3A%2F%2Ftracker.coppersurfer.tk%3A6969","udp%3A%2F%2Fexodus.desync.com%3A6969"],"infoHash":"3c91332f6328a36c6f6a36f651b2b0c4c03a5990","infoHashBuffer":{"type":"Buffer","data":[60,145,51,47,99,40,163,108,111,106,54,246,81,178,176,196,192,58,89,144]},"announce":[],"urlList":[]}}